<svg width="96" height="96" xmlns="http://www.w3.org/2000/svg" xmlns:xlink="http://www.w3.org/1999/xlink" xml:space="preserve" overflow="hidden"><defs><clipPath id="clip0"><rect x="337" y="95" width="96" height="96"/></clipPath></defs><g clip-path="url(#clip0)" transform="translate(-337 -95)"><path d="M381.318 151 374.083 151C368.181 150.982 363.401 146.202 363.383 140.3L363.383 134 370.618 134C376.521 134.016 381.302 138.797 381.318 144.7ZM365.381 140.3C365.396 145.098 369.283 148.985 374.081 149L379.315 149 379.315 144.7C379.3 139.901 375.414 136.015 370.615 136L365.381 136Z"/><path d="M388.006 167 382.006 167C380.349 167 379.006 165.657 379.006 164 379.006 162.343 380.349 161 382.006 161L388.006 161C389.663 161 391.006 162.343 391.006 164 391.006 165.657 389.663 167 388.006 167ZM382.006 163C381.454 163 381.006 163.448 381.006 164 381.006 164.552 381.454 165 382.006 165L388.006 165C388.558 165 389.006 164.552 389.006 164 389.006 163.448 388.558 163 388.006 163Z"/><path d="M395.93 151 388.693 151 388.693 144.7C388.711 138.795 393.495 134.014 399.4 134L406.636 134 406.636 140.3C406.619 146.205 401.835 150.986 395.93 151ZM390.693 149 395.929 149C400.728 148.985 404.614 145.099 404.629 140.3L404.629 136 399.4 136C394.602 136.016 390.716 139.902 390.7 144.7Z"/><path d="M385.058 179C384.123 179.002 383.208 178.733 382.423 178.226 375.987 174.059 354.989 158.845 354.989 138.026 354.989 137.715 354.989 137.405 355.005 137.093 355.448 120.586 369.19 107.563 385.697 108.007 393.908 108.227 401.667 111.816 407.152 117.931 412.697 124.082 415.505 132.222 414.932 140.484 413.437 160.8 393.645 174.542 387.614 178.271 386.847 178.748 385.961 179 385.058 179ZM384.984 110C369.856 110.01 357.469 122.028 357 137.148 356.99 137.438 356.985 137.728 356.985 138.017 356.985 157.832 377.285 172.517 383.506 176.543 384.433 177.139 385.619 177.15 386.557 176.571 392.385 172.966 411.508 159.705 412.934 140.337 413.469 132.62 410.846 125.016 405.667 119.27 400.625 113.592 393.465 110.243 385.875 110.014L385.875 110.014C385.577 110 385.28 110 384.984 110Z"/></g></svg>